<svg width="38" height="31" viewBox="0 0 38 31" fill="none" xmlns="http://www.w3.org/2000/svg">
<g clip-path="url(#clip0_22356_19483)">
<g clip-path="url(#clip1_22356_19483)">
<path d="M16.1595 0.955637C13.9819 1.75342 12.0324 3.02049 10.4358 4.62886L0.554688 14.4924V26.0112L16.3102 10.4352L16.5727 10.1707V0.810585L16.1595 0.955637Z" fill="url(#paint0_linear_22356_19483)"/>
<path d="M15.7739 19.8678L18.5842 17.6238L6.88269 15.5248L6.46094 27.3039L9.26688 25.0641C12.1288 28.6819 16.5787 31.0027 21.5795 31.0027C30.2168 31.0027 37.2188 24.0615 37.2188 15.4992C37.2188 6.93689 30.2125 0 21.5752 0C19.7203 0 17.9386 0.319967 16.2861 0.908707C16.2387 0.925772 16.1871 0.947104 16.1397 0.964168L16.2818 10.4523C17.6116 9.07001 19.4965 8.20823 21.5752 8.20823C25.612 8.20823 28.887 11.4548 28.887 15.4566C28.887 19.4583 25.612 22.7049 21.5752 22.7049C19.2125 22.7049 17.1123 21.5914 15.7739 19.8678Z" fill="#F74000"/>
</g>
</g>
<defs>
<linearGradient id="paint0_linear_22356_19483" x1="0.859421" y1="13.4109" x2="16.1219" y2="13.4109" gradientUnits="userSpaceOnUse">
<stop stop-color="#F74000" stop-opacity="0"/>
<stop offset="1" stop-color="#F74000"/>
</linearGradient>
<clipPath id="clip0_22356_19483">
<rect width="36.6667" height="31.0027" fill="white" transform="translate(0.554688)"/>
</clipPath>
<clipPath id="clip1_22356_19483">
<rect width="36.6667" height="31.0027" fill="white" transform="translate(0.554688)"/>
</clipPath>
</defs>
</svg>
