<svg width="150" height="33" viewBox="0 0 150 33" fill="none" xmlns="http://www.w3.org/2000/svg">
<path d="M42.8818 1.56402H47.5341V6.8129L42.8818 4.60199V1.56402ZM14.2775 12.0127C13.883 7.33697 9.97863 6.17419 7.34835 6.17419C3.58376 6.17419 0.353444 8.54888 0.353444 12.3648C0.386322 15.1571 2.52343 16.6146 5.14549 17.4253C8.73746 18.6618 10.1923 19.1203 10.1923 20.7908C10.2252 22.101 8.98405 23.0591 7.52918 23.0591C6.64146 23.0591 4.83314 22.6333 4.65231 20.5452H0C0.353444 25.2536 4.4386 26.8094 7.46342 26.8094C11.5486 26.8094 14.9268 24.2628 14.8529 20.2586C14.82 16.0824 11.4417 15.1653 8.31826 14.3136C6.46885 13.7814 5.04685 13.1099 5.01397 11.8734C5.01397 10.9154 5.76196 9.92457 7.32369 9.92457C9.13201 9.92457 9.66628 10.9891 9.70738 12.0127H14.2775ZM19.949 26.2035H24.3219L28.0536 13.0772L31.8839 26.2035H36.2568L42.5119 6.77196H37.6788L33.8813 20.2913L30.0838 7.41067H26.1384L22.4067 20.2913L18.5353 6.77196H13.7021L19.949 26.2035ZM42.8818 26.2035H47.5341V6.78015L42.8818 8.99107V26.2035ZM90.5145 17.9494C90.9091 14.5184 90.0049 11.4476 87.5801 8.98288C85.7307 7.09132 83.1251 5.98586 80.1496 5.98586C74.1328 5.98586 69.7189 10.8826 69.7189 16.4509C69.7189 21.9127 74.0999 26.8094 80.2236 26.8094C82.2867 26.8094 84.243 26.2362 85.9115 25.098C87.5801 23.9926 88.9939 22.3466 89.9309 20.1685H85.0403C84.1361 21.7734 82.5744 22.8134 80.2564 22.8134C77.5358 22.8462 74.7164 21.102 74.4945 17.9576H90.5145V17.9494ZM74.5767 14.3792C74.7575 12.4466 76.6809 9.94913 80.1907 9.94913C83.6676 9.91638 85.665 12.5203 85.8458 14.3792H74.5767ZM132.032 26.2035H136.684V15.4764C136.684 12.7496 137.819 10.5551 141.123 10.5223C144.394 10.5223 145.348 12.7496 145.348 15.6566V26.2035H150V14.4938C150 11.0628 148.792 6.21514 142.43 6.17419C138.945 6.14144 137.21 7.83648 136.355 9.35955C136.388 8.44243 136.388 7.62357 136.388 6.78015H132.015V26.2035H132.032ZM48.5616 33H53.2139V26.2035V23.6159C53.9947 24.8524 56.0579 26.8012 59.8553 26.8012C65.5762 26.8012 69.5216 22.1665 69.5216 16.6474C69.5216 11.939 66.6447 6.17419 59.8225 6.17419C56.5921 6.17419 54.3153 7.66452 52.9344 9.60521V6.77196H48.5616V33ZM65.0337 16.5082C65.0337 19.8082 62.3541 22.4777 59.0416 22.4777C55.7291 22.4777 53.0495 19.8082 53.0495 16.5082C53.0495 13.2082 55.7291 10.5387 59.0416 10.5387C62.3541 10.5387 65.0337 13.2164 65.0337 16.5082ZM116.102 19.7427L117.639 18.7928L111.729 16.9422L110.735 23.0345L112.338 22.0519L112.371 22.101C114.393 25.2454 117.639 26.3099 118.067 26.4409C119.045 26.7439 120.089 26.9077 121.174 26.9077C126.936 26.9077 131.613 22.2566 131.613 16.5082C131.613 10.7598 126.944 6.10869 121.174 6.10869C117.623 6.10869 114.483 7.87742 112.601 10.5797L112.231 11.0792L106.387 19.5298L106.272 19.7017C105.195 21.3149 103.354 22.3794 101.258 22.3794C97.9369 22.3794 95.2491 19.7017 95.2491 16.3936C95.2491 13.0854 97.9369 10.4077 101.258 10.4077C104.578 10.4077 107.266 13.0854 107.266 16.3936L107.25 17.0896L111.771 10.7025L111.688 0L107.266 2.37469V7.88561C105.565 6.69007 103.493 5.98586 101.258 5.98586C95.4956 5.98586 90.8187 10.637 90.8187 16.3854C90.8187 22.1337 95.4874 26.7849 101.258 26.7849C104.702 26.7849 107.759 25.1226 109.658 22.5514L109.757 22.404L110.365 21.5196L111.253 16.1561L113.554 16.8931L116.02 13.372L116.184 13.1427C117.261 11.5541 119.094 10.506 121.166 10.506C124.486 10.506 127.174 13.1836 127.174 16.4918C127.174 19.8 124.486 22.4777 121.166 22.4777C119.07 22.4777 117.22 21.405 116.143 19.7836L116.102 19.7427Z" fill="#F74000"/>
</svg>
